<svg viewBox="0 0 12 13" fill="none" xmlns="http://www.w3.org/2000/svg">
<g clip-path="url(#clip0_52_189)">
<path d="M0 5.84051C0.054411 5.6086 0.0688046 5.36929 0.132548 5.13912C0.181423 4.96298 0.232512 4.78732 0.278224 4.6104C0.297046 4.53746 0.331369 4.51052 0.411246 4.51162C0.775041 4.5165 1.13915 4.51382 1.50295 4.51382C3.01491 4.51382 4.52703 4.51209 6.03899 4.5154C6.29301 4.51603 6.49816 4.43442 6.65871 4.23592C6.75266 4.11965 6.85421 4.00921 6.95623 3.89972C7.12515 3.71807 7.33584 3.72027 7.50176 3.9035C7.62735 4.04214 7.75483 4.17936 7.87457 4.32304C7.98924 4.46057 8.1316 4.51556 8.30859 4.51509C9.39666 4.51256 10.4847 4.51509 11.5728 4.51178C11.6623 4.51146 11.7025 4.53494 11.7303 4.62285C11.8595 5.0301 11.9456 5.44538 11.997 5.86886C12.009 5.96733 11.9889 6.00057 11.8792 6.00026C10.4422 5.99616 9.00518 5.99679 7.56835 5.99868C7.40717 5.99884 7.27779 5.94638 7.17276 5.82412C7.0486 5.67934 6.92111 5.53723 6.79283 5.39592C6.61948 5.20497 6.40864 5.20198 6.2269 5.38804C6.08312 5.53519 5.9376 5.68107 5.80031 5.8342C5.69797 5.94827 5.58029 5.99947 5.42528 5.99931C3.61691 5.99648 1.80853 5.99758 0.000158172 5.99758V5.84066L0 5.84051Z" fill="white"/>
<path d="M5.56034 12.5001C5.35425 12.4701 5.14688 12.4462 4.94205 12.4092C3.65896 12.177 2.56679 11.5874 1.6562 10.6601C1.64576 10.6496 1.63627 10.6379 1.62741 10.6259C1.6233 10.6203 1.62187 10.6127 1.61365 10.5917C1.89519 10.5906 2.07282 10.421 2.23352 10.222C2.29932 10.1405 2.37176 10.0646 2.44183 9.98677C2.61503 9.79425 2.82698 9.79378 3.00271 9.9874C3.12846 10.1259 3.25484 10.2639 3.3752 10.4068C3.48466 10.5369 3.6199 10.5916 3.7893 10.5914C5.94233 10.5897 8.09536 10.5903 10.2485 10.5903H10.3991C10.3066 10.7173 10.2024 10.8068 10.1019 10.8982C9.08267 11.8253 7.88831 12.3597 6.51048 12.4801C6.48549 12.4823 6.45686 12.4742 6.43804 12.5001H5.56003H5.56034Z" fill="white"/>
<path d="M8.35259 9.11424C7.3849 9.11424 6.41721 9.11187 5.44967 9.11628C5.25528 9.11723 5.10122 9.06036 4.97785 8.9077C4.86997 8.7741 4.75119 8.64901 4.6362 8.52092C4.45493 8.31895 4.25295 8.31107 4.06393 8.50139C3.90845 8.65799 3.75392 8.81585 3.6035 8.97733C3.51872 9.06823 3.41891 9.11424 3.29601 9.11424C2.41468 9.11424 1.53319 9.11345 0.651856 9.11613C0.586531 9.11628 0.561857 9.08982 0.53734 9.03704C0.341049 8.61561 0.198537 8.177 0.100154 7.72296C0.0808571 7.63348 0.095567 7.60969 0.19047 7.61C1.42816 7.613 2.66585 7.60953 3.90355 7.61394C4.15425 7.61489 4.35528 7.53407 4.51441 7.34107C4.61184 7.22292 4.71544 7.10948 4.81904 6.99652C4.97975 6.82149 5.19897 6.82133 5.35793 6.99589C5.48384 7.13422 5.61117 7.2716 5.73011 7.41575C5.84653 7.55675 5.98967 7.61394 6.17236 7.61363C8.04384 7.61079 9.91549 7.61189 11.7871 7.61189C11.9252 7.61189 11.9247 7.61189 11.8956 7.75053C11.8058 8.17921 11.6669 8.5915 11.4887 8.99167C11.4491 9.08036 11.4067 9.11802 11.3008 9.11739C10.3182 9.11203 9.33547 9.11424 8.35275 9.11424H8.35259Z" fill="white"/>
<path d="M1.189 2.89945C3.55303 -0.293029 8.44006 -0.300276 10.8008 2.88055C10.7756 2.91473 10.7389 2.89851 10.7082 2.89866C10.3707 2.90008 10.033 2.89851 9.69547 2.89992C9.54362 2.90055 9.41914 2.84793 9.31918 2.73293C9.18916 2.58342 9.05709 2.43532 8.92406 2.28849C8.76178 2.10921 8.54255 2.10621 8.37299 2.28077C8.22447 2.43375 8.07642 2.58736 7.93122 2.74348C7.83711 2.84494 7.72829 2.90055 7.58593 2.90055C5.48889 2.89914 3.39201 2.89961 1.29498 2.89961H1.18884L1.189 2.89945Z" fill="white"/>
</g>
<defs>
<clipPath id="clip0_52_189">
<rect width="12" height="12" fill="white" transform="translate(0 0.5)"/>
</clipPath>
</defs>
</svg>
