<svg viewBox="0 0 28 28" fill="none" xmlns="http://www.w3.org/2000/svg">
<path d="M2.33331 23.3334H4.66665M4.66665 23.3334H10.5M4.66665 23.3334V8.40025C4.66665 7.09346 4.66665 6.43958 4.92096 5.94045C5.14467 5.50141 5.50136 5.14471 5.94041 4.92101C6.43954 4.66669 7.09342 4.66669 8.40021 4.66669H10.2669C11.5737 4.66669 12.2261 4.66669 12.7253 4.92101C13.1643 5.14471 13.5222 5.50141 13.7459 5.94045C14 6.43909 14 7.09218 14 8.39642V11.6669M10.5 23.3334H23.3333M10.5 23.3334V16.7629C10.5 16.1499 10.5 15.8433 10.5735 15.5575C10.6386 15.3041 10.7458 15.0638 10.8908 14.8461C11.0542 14.6005 11.283 14.3949 11.7384 13.9857L14.4236 11.5733C15.3041 10.7823 15.7447 10.3864 16.2429 10.2363C16.6821 10.1039 17.1508 10.1039 17.59 10.2363C18.0886 10.3866 18.5298 10.7826 19.4118 11.575L22.0951 13.9857C22.5511 14.3953 22.7786 14.6003 22.9421 14.8461C23.087 15.0638 23.1941 15.3041 23.2593 15.5575C23.3328 15.8433 23.3333 16.1499 23.3333 16.7629V23.3334M23.3333 23.3334H25.6666" stroke="black" stroke-width="2.5" stroke-linecap="round" stroke-linejoin="round"/>
</svg>
