<svg width="16" height="16" viewBox="0 0 16 16" fill="none" xmlns="http://www.w3.org/2000/svg">
<path fill-rule="evenodd" clip-rule="evenodd" d="M8 16C12.4183 16 16 12.4183 16 8C16 3.58172 12.4183 0 8 0C3.58172 0 0 3.58172 0 8C0 12.4183 3.58172 16 8 16ZM11.5303 6.53032C11.8232 6.23742 11.8232 5.76255 11.5303 5.46966C11.2374 5.17677 10.7625 5.17678 10.4697 5.46968L7.00011 8.93935L5.53031 7.46966C5.23741 7.17678 4.76253 7.17679 4.46965 7.4697C4.17677 7.7626 4.17679 8.23748 4.46969 8.53036L6.46983 10.5303C6.76273 10.8232 7.2376 10.8232 7.53048 10.5303L11.5303 6.53032Z" fill="white"/>
</svg>
