<svg viewBox="0 0 28 28" fill="none" xmlns="http://www.w3.org/2000/svg">
<path d="M14 6.41667V9.33333M14 6.41667C14 4.80584 15.3058 3.5 16.9167 3.5C18.5275 3.5 19.8333 4.80584 19.8333 6.41667C19.8333 8.0275 18.5275 9.33333 16.9167 9.33333M14 6.41667C14 4.80584 12.6942 3.5 11.0833 3.5C9.4725 3.5 8.16667 4.80584 8.16667 6.41667C8.16667 8.0275 9.4725 9.33333 11.0833 9.33333M14 9.33333H16.9167M14 9.33333H11.0833M14 9.33333V16.3333M16.9167 9.33333H20.7669C22.0737 9.33333 22.7262 9.33333 23.2253 9.58765C23.6643 9.81136 24.0222 10.1681 24.2459 10.6071C24.5 11.1057 24.5 11.7588 24.5 13.0631V16.3333M11.0833 9.33333H7.23356C5.92677 9.33333 5.27289 9.33333 4.77376 9.58765C4.33472 9.81136 3.97802 10.1681 3.75432 10.6071C3.5 11.1062 3.5 11.7601 3.5 13.0669V16.3333M3.5 16.3333V19.6002C3.5 20.907 3.5 21.5601 3.75432 22.0592C3.97802 22.4982 4.33472 22.8556 4.77376 23.0793C5.2724 23.3333 5.92549 23.3333 7.22973 23.3333H14M3.5 16.3333H14M14 16.3333V23.3333M14 16.3333H24.5M14 23.3333H20.7703C22.0745 23.3333 22.7267 23.3333 23.2253 23.0793C23.6643 22.8556 24.0222 22.4982 24.2459 22.0592C24.5 21.5606 24.5 20.9084 24.5 19.6042V16.3333" stroke="black" stroke-width="2.5" stroke-linecap="round" stroke-linejoin="round"/>
</svg>
