<svg viewBox="0 0 28 28" fill="none" xmlns="http://www.w3.org/2000/svg">
<path d="M24.4166 14C24.4166 19.7533 19.7533 24.4167 14 24.4167C8.24667 24.4167 3.58331 19.7533 3.58331 14C3.58331 8.24673 8.24667 3.58337 14 3.58337C19.7533 3.58337 24.4166 8.24673 24.4166 14Z" stroke="black" stroke-width="2.5"/>
<path d="M6.41669 10.5C4.66669 10.5 3.93753 8.60417 7.00003 5.83332C10.0625 3.06246 19.25 0.583315 23.9167 9.91665C19.25 11.6666 18.6667 6.99998 15.75 7.58332C12.8334 8.16665 15.1667 9.33332 14.5834 9.33332C12.4801 9.33332 15.1667 9.33332 11.6667 9.33332C8.16669 9.33332 14.5834 15.75 11.6667 15.1667C8.75002 14.5833 8.16669 10.5 6.41669 10.5Z" fill="black" stroke="black"/>
<path d="M12.25 21.5834C14.5834 20.4167 12.8333 18.0834 12.8334 17.5C12.8334 16.9167 18.6667 15.75 18.6667 18.6667C18.6667 21.5834 21.5834 21.5834 21.5834 21.5834C21.5834 21.5834 16.4501 25.9 12.2501 24.5C11.2778 23.7222 10.3834 22.5167 12.25 21.5834Z" fill="black" stroke="black"/>
</svg>
