<svg viewBox="0 0 206 48" fill="none" xmlns="http://www.w3.org/2000/svg">
<path d="M5.3024 36.2763C3.71664 36.2763 2.4282 35.7958 1.4371 34.8348C0.479033 33.8739 0 32.4324 0 30.5105C0 29.7097 0.132147 28.6687 0.396441 27.3874L5.69884 3.31532L13.033 2.35435L7.33416 28.3003C7.20202 28.7808 7.13594 29.2933 7.13594 29.8378C7.13594 30.4785 7.28461 30.9429 7.58194 31.2312C7.91231 31.4875 8.44089 31.6156 9.1677 31.6156C10.1258 31.6156 11.0178 31.2312 11.8437 30.4625C12.6696 29.6617 13.2643 28.6366 13.6277 27.3874H15.709C14.4866 30.8468 12.9174 33.2012 11.0012 34.4505C9.08511 35.6677 7.1855 36.2763 5.3024 36.2763Z" fill="black"/>
<path d="M21.8836 9.36937C20.7934 9.36937 19.8684 9.001 19.1085 8.26426C18.3487 7.52753 17.9688 6.63063 17.9688 5.57357C17.9688 4.51652 18.3487 3.61962 19.1085 2.88288C19.8684 2.11411 20.7934 1.72973 21.8836 1.72973C22.9738 1.72973 23.8989 2.11411 24.6587 2.88288C25.4516 3.61962 25.848 4.51652 25.848 5.57357C25.848 6.63063 25.4516 7.52753 24.6587 8.26426C23.8989 9.001 22.9738 9.36937 21.8836 9.36937ZM18.5139 36.2763C16.9281 36.2763 15.6397 35.7958 14.6486 34.8348C13.6905 33.8739 13.2115 32.4324 13.2115 30.5105C13.2115 29.7097 13.3436 28.6687 13.6079 27.3874L16.9777 11.964H24.1136L20.5456 28.3003C20.4135 28.7808 20.3474 29.2933 20.3474 29.8378C20.3474 30.4785 20.4961 30.9429 20.7934 31.2312C21.1238 31.4875 21.6524 31.6156 22.3792 31.6156C23.3372 31.6156 24.2292 31.2312 25.0552 30.4625C25.8811 29.6617 26.4757 28.6366 26.8391 27.3874H28.9205C27.6981 30.8468 26.1289 33.2012 24.2127 34.4505C22.2966 35.6677 20.397 36.2763 18.5139 36.2763Z" fill="black"/>
<path d="M22.3594 48C20.8067 48 19.4522 47.5035 18.2959 46.5105C17.1066 45.5495 16.5119 44.3163 16.5119 42.8108C16.5119 41.4334 16.8753 40.2963 17.6021 39.3994C18.329 38.5025 19.2705 37.7818 20.4268 37.2372C21.5831 36.7247 23.1193 36.1802 25.0354 35.6036L31.0316 8.16817C31.6923 5.09309 32.8486 2.96296 34.5005 1.77778C36.1853 0.592593 38.0354 0 40.0506 0C41.6034 0 42.9579 0.496496 44.1142 1.48949C45.3035 2.45045 45.8981 3.68368 45.8981 5.18919C45.8981 5.92592 45.8486 6.58258 45.7495 7.15916H43.4204C43.4865 6.45445 43.5195 6.02202 43.5195 5.86186C43.5195 5.34935 43.3378 4.94895 42.9744 4.66066C42.611 4.37237 42.165 4.22823 41.6364 4.22823C40.9426 4.22823 40.2654 4.53253 39.6046 5.14114C38.9439 5.71772 38.4649 6.72673 38.1675 8.16817L37.3251 11.964H40.9426L40.5957 13.8859H36.9287L31.2298 39.8318C30.5691 42.9389 29.4293 45.0691 27.8105 46.2222C26.1917 47.4074 24.3747 48 22.3594 48ZM21.2197 43.7237C22.5411 43.7237 23.4827 42.4745 24.0443 39.976L24.6885 37.1892C22.9376 37.7658 21.5996 38.4224 20.6746 39.1592C19.7165 39.9279 19.2375 40.9209 19.2375 42.1381C19.2375 42.5225 19.4357 42.8749 19.8321 43.1952C20.2286 43.5475 20.6911 43.7237 21.2197 43.7237Z" fill="black"/>
<path d="M47.1173 36.2763C44.6726 36.2763 42.7729 35.6677 41.4184 34.4505C40.0639 33.2012 39.3867 31.2633 39.3867 28.6366C39.3867 26.4264 39.8327 23.992 40.7247 21.3333C41.6166 18.6747 43.0703 16.3844 45.0855 14.4625C47.1008 12.5085 49.6611 11.5315 52.7666 11.5315C56.4006 11.5315 58.2176 13.0691 58.2176 16.1441C58.2176 17.9379 57.689 19.5876 56.6319 21.0931C55.5747 22.5986 54.1706 23.8158 52.4197 24.7447C50.6687 25.6416 48.8022 26.1542 46.8199 26.2823C46.7539 27.2432 46.7208 27.8839 46.7208 28.2042C46.7208 29.7738 47.0016 30.8468 47.5633 31.4234C48.1249 31.968 49.0334 32.2402 50.2888 32.2402C52.0728 32.2402 53.5925 31.8398 54.8479 31.039C56.1363 30.2382 57.5404 29.021 59.0601 27.3874H60.7449C57.0779 33.3133 52.5353 36.2763 47.1173 36.2763ZM47.2164 23.976C48.4387 23.9119 49.595 23.4955 50.6852 22.7267C51.8085 21.958 52.7005 20.981 53.3612 19.7958C54.055 18.6106 54.4019 17.3614 54.4019 16.048C54.4019 14.7347 53.9889 14.0781 53.163 14.0781C51.9737 14.0781 50.8009 15.0871 49.6446 17.1051C48.5213 19.1231 47.7119 21.4134 47.2164 23.976Z" fill="black"/>
<path d="M89.1791 36.2763C87.1639 36.2763 85.6772 35.7638 84.7192 34.7387C83.7942 33.6817 83.3316 32.3844 83.3316 30.8468C83.3316 30.1742 83.4142 29.4214 83.5794 28.5886C83.7446 27.7237 83.9098 26.8909 84.075 26.0901C84.2732 25.2893 84.4053 24.7768 84.4714 24.5526C84.7357 23.4314 84.9835 22.3263 85.2147 21.2372C85.446 20.1481 85.5616 19.2673 85.5616 18.5946C85.5616 16.961 84.967 16.1441 83.7776 16.1441C82.9187 16.1441 82.1588 16.5606 81.4981 17.3934C80.8374 18.1942 80.3088 19.2513 79.9123 20.5646L76.5426 35.988H69.4066L73.0242 19.4114C73.1233 19.027 73.1728 18.6266 73.1728 18.2102C73.1728 16.8008 72.6773 16.0961 71.6862 16.0961C70.7611 16.0961 69.9517 16.5125 69.258 17.3453C68.5972 18.1461 68.0686 19.2192 67.6722 20.5646L64.3025 35.988H57.1665L62.4194 11.964H69.5553L69.0102 14.4625C70.6951 12.6366 72.7103 11.7237 75.0559 11.7237C77.9632 11.7237 79.6646 13.1011 80.1601 15.8559C81.9771 13.1331 84.2732 11.7718 87.0483 11.7718C88.7332 11.7718 90.0711 12.2202 91.0622 13.1171C92.0533 14.014 92.5489 15.3754 92.5489 17.2012C92.5489 18.1301 92.4333 19.1712 92.202 20.3243C91.9708 21.4454 91.6404 22.8228 91.2109 24.4565C90.9466 25.4494 90.6988 26.4264 90.4676 27.3874C90.2694 28.3163 90.1702 29.0531 90.1702 29.5976C90.1702 30.2382 90.3189 30.7347 90.6162 31.0871C90.9136 31.4394 91.4256 31.6156 92.1525 31.6156C93.1436 31.6156 93.9364 31.2793 94.5311 30.6066C95.1258 29.9019 95.7204 28.8288 96.3151 27.3874H98.3964C97.174 30.9109 95.7535 33.2813 94.1347 34.4985C92.5489 35.6837 90.8971 36.2763 89.1791 36.2763Z" fill="black"/>
<path d="M104.588 9.36937C103.498 9.36937 102.573 9.001 101.813 8.26426C101.054 7.52753 100.674 6.63063 100.674 5.57357C100.674 4.51652 101.054 3.61962 101.813 2.88288C102.573 2.11411 103.498 1.72973 104.588 1.72973C105.679 1.72973 106.604 2.11411 107.364 2.88288C108.156 3.61962 108.553 4.51652 108.553 5.57357C108.553 6.63063 108.156 7.52753 107.364 8.26426C106.604 9.001 105.679 9.36937 104.588 9.36937ZM101.219 36.2763C99.6329 36.2763 98.3445 35.7958 97.3534 34.8348C96.3954 33.8739 95.9163 32.4324 95.9163 30.5105C95.9163 29.7097 96.0485 28.6687 96.3128 27.3874L99.6825 11.964H106.818L103.25 28.3003C103.118 28.7808 103.052 29.2933 103.052 29.8378C103.052 30.4785 103.201 30.9429 103.498 31.2312C103.829 31.4875 104.357 31.6156 105.084 31.6156C106.042 31.6156 106.934 31.2312 107.76 30.4625C108.586 29.6617 109.181 28.6366 109.544 27.3874H111.625C110.403 30.8468 108.834 33.2012 106.918 34.4505C105.001 35.6677 103.102 36.2763 101.219 36.2763Z" fill="black"/>
<path d="M127.414 36.2763C125.398 36.2763 123.912 35.7638 122.954 34.7387C122.029 33.6817 121.566 32.3844 121.566 30.8468C121.566 30.1742 121.649 29.4214 121.814 28.5886C121.979 27.7237 122.144 26.8909 122.309 26.0901C122.508 25.2893 122.64 24.7768 122.706 24.5526C122.97 23.4314 123.218 22.3263 123.449 21.2372C123.681 20.1481 123.796 19.2673 123.796 18.5946C123.796 16.961 123.201 16.1441 122.012 16.1441C121.153 16.1441 120.393 16.5606 119.733 17.3934C119.072 18.1942 118.543 19.2513 118.147 20.5646L114.777 35.988H107.641L112.894 11.964H120.03L119.485 14.4625C121.137 12.6687 123.069 11.7718 125.283 11.7718C126.968 11.7718 128.306 12.2202 129.297 13.1171C130.288 14.014 130.783 15.3754 130.783 17.2012C130.783 18.1301 130.668 19.1712 130.437 20.3243C130.205 21.4454 129.875 22.8228 129.445 24.4565C129.181 25.4494 128.933 26.4264 128.702 27.3874C128.504 28.3163 128.405 29.0531 128.405 29.5976C128.405 30.2382 128.553 30.7347 128.851 31.0871C129.148 31.4394 129.66 31.6156 130.387 31.6156C131.378 31.6156 132.171 31.2793 132.766 30.6066C133.36 29.9019 133.955 28.8288 134.55 27.3874H136.631C135.409 30.9109 133.988 33.2813 132.369 34.4985C130.783 35.6837 129.132 36.2763 127.414 36.2763Z" fill="black"/>
<path d="M142.82 9.36937C141.729 9.36937 140.804 9.001 140.044 8.26426C139.285 7.52753 138.905 6.63063 138.905 5.57357C138.905 4.51652 139.285 3.61962 140.044 2.88288C140.804 2.11411 141.729 1.72973 142.82 1.72973C143.91 1.72973 144.835 2.11411 145.595 2.88288C146.387 3.61962 146.784 4.51652 146.784 5.57357C146.784 6.63063 146.387 7.52753 145.595 8.26426C144.835 9.001 143.91 9.36937 142.82 9.36937ZM139.45 36.2763C137.864 36.2763 136.576 35.7958 135.584 34.8348C134.626 33.8739 134.147 32.4324 134.147 30.5105C134.147 29.7097 134.279 28.6687 134.544 27.3874L137.914 11.964H145.049L141.482 28.3003C141.349 28.7808 141.283 29.2933 141.283 29.8378C141.283 30.4785 141.432 30.9429 141.729 31.2312C142.06 31.4875 142.588 31.6156 143.315 31.6156C144.273 31.6156 145.165 31.2312 145.991 30.4625C146.817 29.6617 147.412 28.6366 147.775 27.3874H149.856C148.634 30.8468 147.065 33.2012 145.149 34.4505C143.232 35.6677 141.333 36.2763 139.45 36.2763Z" fill="black"/>
<path d="M165.645 36.2763C163.629 36.2763 162.143 35.7638 161.185 34.7387C160.26 33.6817 159.797 32.3844 159.797 30.8468C159.797 30.1742 159.88 29.4214 160.045 28.5886C160.21 27.7237 160.375 26.8909 160.54 26.0901C160.739 25.2893 160.871 24.7768 160.937 24.5526C161.201 23.4314 161.449 22.3263 161.68 21.2372C161.912 20.1481 162.027 19.2673 162.027 18.5946C162.027 16.961 161.432 16.1441 160.243 16.1441C159.384 16.1441 158.624 16.5606 157.964 17.3934C157.303 18.1942 156.774 19.2513 156.378 20.5646L153.008 35.988H145.872L151.125 11.964H158.261L157.716 14.4625C159.368 12.6687 161.3 11.7718 163.514 11.7718C165.199 11.7718 166.537 12.2202 167.528 13.1171C168.519 14.014 169.014 15.3754 169.014 17.2012C169.014 18.1301 168.899 19.1712 168.668 20.3243C168.436 21.4454 168.106 22.8228 167.676 24.4565C167.412 25.4494 167.164 26.4264 166.933 27.3874C166.735 28.3163 166.636 29.0531 166.636 29.5976C166.636 30.2382 166.784 30.7347 167.082 31.0871C167.379 31.4394 167.891 31.6156 168.618 31.6156C169.609 31.6156 170.402 31.2793 170.997 30.6066C171.591 29.9019 172.186 28.8288 172.781 27.3874H174.862C173.64 30.9109 172.219 33.2813 170.6 34.4985C169.014 35.6837 167.363 36.2763 165.645 36.2763Z" fill="black"/>
<path d="M181.497 48C179.944 48 178.573 47.5035 177.383 46.5105C176.227 45.5495 175.649 44.3163 175.649 42.8108C175.649 41.4014 176.012 40.2482 176.739 39.3514C177.466 38.4545 178.408 37.7497 179.564 37.2372C180.72 36.7247 182.273 36.1802 184.222 35.6036L184.668 33.5856C182.95 35.3794 180.968 36.2763 178.721 36.2763C176.838 36.2763 175.269 35.6516 174.014 34.4024C172.758 33.1532 172.131 31.1992 172.131 28.5405C172.131 26.1702 172.61 23.6877 173.568 21.0931C174.559 18.4665 176.012 16.2563 177.929 14.4625C179.878 12.6366 182.19 11.7237 184.866 11.7237C186.221 11.7237 187.228 11.9479 187.889 12.3964C188.55 12.8448 188.88 13.4374 188.88 14.1742V14.2703L189.376 11.964H196.561L190.516 39.8318C189.855 42.9069 188.682 45.037 186.997 46.2222C185.345 47.4074 183.512 48 181.497 48ZM181.943 31.6156C182.702 31.6156 183.462 31.3113 184.222 30.7027C185.015 30.0621 185.577 29.1652 185.907 28.012L188.434 16.3844C188.17 15.2633 187.493 14.7027 186.402 14.7027C185.081 14.7027 183.892 15.4555 182.835 16.961C181.777 18.4344 180.951 20.2282 180.357 22.3423C179.762 24.4244 179.465 26.2663 179.465 27.8679C179.465 29.4695 179.696 30.4945 180.159 30.9429C180.654 31.3914 181.249 31.6156 181.943 31.6156ZM180.357 43.7237C180.951 43.7237 181.513 43.4194 182.042 42.8108C182.57 42.2342 182.983 41.2893 183.281 39.976L183.875 37.1411C182.124 37.7177 180.77 38.3904 179.812 39.1592C178.854 39.9279 178.375 40.9209 178.375 42.1381C178.375 42.5225 178.573 42.8749 178.969 43.1952C179.366 43.5475 179.828 43.7237 180.357 43.7237Z" fill="black"/>
<path d="M202.036 36.1802C200.945 36.1802 200.02 35.8118 199.26 35.0751C198.501 34.3383 198.121 33.4414 198.121 32.3844C198.121 31.3273 198.501 30.4304 199.26 29.6937C200.02 28.9249 200.945 28.5405 202.036 28.5405C203.126 28.5405 204.051 28.9249 204.811 29.6937C205.604 30.4304 206 31.3273 206 32.3844C206 33.4414 205.604 34.3383 204.811 35.0751C204.051 35.8118 203.126 36.1802 202.036 36.1802Z" fill="black"/>
</svg>
