<svg  viewBox="0 0 106 33" fill="none" xmlns="http://www.w3.org/2000/svg">
<path d="M13.552 25.192C12.2507 25.192 11.2907 24.8507 10.672 24.168C10.0747 23.464 9.776 22.6 9.776 21.576C9.776 21.128 9.82933 20.6267 9.936 20.072C10.0427 19.496 10.1493 18.9413 10.256 18.408C10.384 17.8747 10.4693 17.5333 10.512 17.384C10.6827 16.6373 10.8427 15.9013 10.992 15.176C11.1413 14.4507 11.216 13.864 11.216 13.416C11.216 12.328 10.832 11.784 10.064 11.784C9.50933 11.784 9.01867 12.0613 8.592 12.616C8.16533 13.1493 7.824 13.8533 7.568 14.728L5.392 25H0.784L4.176 9H8.784L8.432 10.664C9.49867 9.46933 10.7467 8.872 12.176 8.872C13.264 8.872 14.128 9.17067 14.768 9.768C15.408 10.3653 15.728 11.272 15.728 12.488C15.728 13.1067 15.6533 13.8 15.504 14.568C15.3547 15.3147 15.1413 16.232 14.864 17.32C14.6933 17.9813 14.5333 18.632 14.384 19.272C14.256 19.8907 14.192 20.3813 14.192 20.744C14.192 21.1707 14.288 21.5013 14.48 21.736C14.672 21.9707 15.0027 22.088 15.472 22.088C16.112 22.088 16.624 21.864 17.008 21.416C17.392 20.9467 17.776 20.232 18.16 19.272H19.504C18.7147 21.6187 17.7973 23.1973 16.752 24.008C15.728 24.7973 14.6613 25.192 13.552 25.192ZM15.2442 33C14.2416 33 13.3669 32.6693 12.6202 32.008C11.8522 31.368 11.4682 30.5467 11.4682 29.544C11.4682 28.6267 11.7029 27.8693 12.1722 27.272C12.6416 26.6747 13.2602 26.1947 14.0282 25.832C14.7749 25.4907 15.7669 25.128 17.0042 24.744L20.8443 6.472C21.2709 4.424 22.0176 3.00533 23.0843 2.216C24.1723 1.42667 25.3669 1.032 26.6683 1.032C27.9696 1.032 29.2283 1.21333 30.4443 1.576C31.6816 1.93867 33.2496 2.49333 35.1483 3.24L33.9323 9H35.8523L35.5963 10.28H33.6443L31.6283 19.88C31.5429 20.2 31.5003 20.5413 31.5003 20.904C31.5003 21.3307 31.5963 21.64 31.7883 21.832C32.0016 22.0027 32.3429 22.088 32.8123 22.088C33.4309 22.088 34.0069 21.832 34.5403 21.32C35.0736 20.7867 35.4576 20.104 35.6923 19.272H37.0363C36.2469 21.576 35.2336 23.144 33.9963 23.976C32.7589 24.7867 31.5323 25.192 30.3163 25.192C29.2923 25.192 28.4603 24.872 27.8203 24.232C27.2016 23.592 26.8923 22.632 26.8923 21.352C26.8923 20.8187 26.9776 20.1253 27.1483 19.272L29.0363 10.28H24.7163L21.0683 27.56C20.6416 29.608 19.8843 31.0267 18.7963 31.816C17.7296 32.6053 16.5456 33 15.2442 33ZM29.3243 9L30.4763 3.56C30.0923 3.41067 29.6229 3.29333 29.0683 3.208C28.5349 3.10133 28.1296 3.048 27.8523 3.048C27.4043 3.048 26.9776 3.22933 26.5723 3.592C26.1669 3.95467 25.8683 4.616 25.6763 5.576L24.9723 9H29.3243ZM14.5082 30.152C14.8922 30.152 15.2549 29.9493 15.5962 29.544C15.9376 29.16 16.2042 28.5307 16.3962 27.656L16.7802 25.8C15.6496 26.184 14.7749 26.6213 14.1562 27.112C13.5376 27.624 13.2282 28.2853 13.2282 29.096C13.2282 29.352 13.3562 29.5867 13.6122 29.8C13.8682 30.0347 14.1669 30.152 14.5082 30.152ZM50.465 25.576C49.121 25.576 47.937 25.3413 46.913 24.872C45.889 24.4027 45.0997 23.752 44.545 22.92C43.9903 22.0667 43.713 21.0853 43.713 19.976C43.713 19.0373 43.905 18.184 44.289 17.416C44.6943 16.648 45.2277 16.04 45.889 15.592C46.5717 15.144 47.3183 14.92 48.129 14.92C48.8757 14.92 49.505 15.112 50.017 15.496C50.529 15.8587 50.849 16.3707 50.977 17.032C49.8677 17.032 48.9823 17.3307 48.321 17.928C47.6597 18.504 47.329 19.2933 47.329 20.296C47.329 21.2133 47.6063 21.9493 48.161 22.504C48.7157 23.0587 49.4517 23.336 50.369 23.336C51.4997 23.336 52.4277 22.9627 53.153 22.216C53.8997 21.448 54.273 20.488 54.273 19.336C54.273 18.3333 53.9957 17.384 53.441 16.488C52.8863 15.592 52.0543 14.504 50.945 13.224C49.793 11.9013 48.9183 10.7707 48.321 9.832C47.745 8.872 47.457 7.82667 47.457 6.696C47.457 5.58667 47.7663 4.59467 48.385 3.72C49.0037 2.824 49.857 2.12 50.945 1.608C52.033 1.096 53.2597 0.839998 54.625 0.839998C56.353 0.839998 57.729 1.24533 58.753 2.056C59.7983 2.86667 60.321 3.95467 60.321 5.32C60.321 6.216 60.097 6.94133 59.649 7.496C59.201 8.05067 58.6143 8.328 57.889 8.328C57.0783 8.328 56.4277 7.99733 55.937 7.336C56.3423 7.03733 56.6623 6.64267 56.897 6.152C57.1317 5.66133 57.249 5.14933 57.249 4.616C57.249 3.93333 57.0463 3.38933 56.641 2.984C56.2357 2.57867 55.681 2.376 54.977 2.376C54.1237 2.376 53.4197 2.68533 52.865 3.304C52.3317 3.90133 52.065 4.66933 52.065 5.608C52.065 6.46133 52.3103 7.26133 52.801 8.008C53.2917 8.73333 54.0597 9.672 55.105 10.824C55.9583 11.7413 56.641 12.5307 57.153 13.192C57.6863 13.8533 58.1343 14.6213 58.497 15.496C58.881 16.3493 59.073 17.2773 59.073 18.28C59.073 19.6453 58.689 20.8827 57.921 21.992C57.1743 23.1013 56.1397 23.976 54.817 24.616C53.5157 25.256 52.065 25.576 50.465 25.576ZM72.427 25.192C71.1257 25.192 70.1657 24.8507 69.547 24.168C68.9497 23.464 68.651 22.6 68.651 21.576C68.651 21.128 68.7043 20.6267 68.811 20.072C68.9177 19.496 69.0243 18.9413 69.131 18.408C69.259 17.8747 69.3443 17.5333 69.387 17.384C69.5577 16.6373 69.7177 15.9013 69.867 15.176C70.0163 14.4507 70.091 13.864 70.091 13.416C70.091 12.328 69.707 11.784 68.939 11.784C68.3843 11.784 67.8937 12.0613 67.467 12.616C67.0403 13.1493 66.699 13.8533 66.443 14.728L64.267 25H59.659L64.299 3.24L69.035 2.6L67.307 10.664C68.3737 9.46933 69.6217 8.872 71.051 8.872C72.139 8.872 73.003 9.17067 73.643 9.768C74.283 10.3653 74.603 11.272 74.603 12.488C74.603 13.1067 74.5283 13.8 74.379 14.568C74.2297 15.3147 74.0163 16.232 73.739 17.32C73.5683 17.9813 73.4083 18.632 73.259 19.272C73.131 19.8907 73.067 20.3813 73.067 20.744C73.067 21.1707 73.163 21.5013 73.355 21.736C73.547 21.9707 73.8777 22.088 74.347 22.088C74.987 22.088 75.499 21.864 75.883 21.416C76.267 20.9467 76.651 20.232 77.035 19.272H78.379C77.5897 21.6187 76.6723 23.1973 75.627 24.008C74.603 24.7973 73.5363 25.192 72.427 25.192ZM81.7033 25.128C80.1246 25.128 78.8766 24.7227 77.9593 23.912C77.0419 23.1013 76.5832 21.8213 76.5832 20.072C76.5832 18.6213 76.8819 17.0107 77.4793 15.24C78.0766 13.4693 79.0366 11.944 80.3593 10.664C81.6819 9.36267 83.3459 8.712 85.3513 8.712C88.0819 8.712 89.4473 10.4187 89.4473 13.832V13.864C89.5113 13.8853 89.6286 13.896 89.7993 13.896C90.5033 13.896 91.3139 13.7147 92.2313 13.352C93.1486 12.968 93.9806 12.5093 94.7273 11.976L95.0153 12.84C94.3966 13.5013 93.5859 14.0667 92.5833 14.536C91.6019 14.984 90.5246 15.304 89.3513 15.496C89.1806 17.4373 88.7433 19.1333 88.0393 20.584C87.3353 22.0347 86.4286 23.1547 85.3193 23.944C84.2099 24.7333 83.0046 25.128 81.7033 25.128ZM82.9833 22.248C83.4953 22.248 84.0073 21.96 84.5193 21.384C85.0313 20.7867 85.4793 19.9867 85.8633 18.984C86.2473 17.96 86.5246 16.8293 86.6953 15.592C86.1193 15.464 85.8313 15.016 85.8313 14.248C85.8313 13.3733 86.1619 12.7973 86.8233 12.52C86.7806 11.816 86.6739 11.336 86.5033 11.08C86.3326 10.8027 86.0339 10.664 85.6073 10.664C84.9033 10.664 84.2206 11.176 83.5593 12.2C82.8979 13.224 82.3646 14.4507 81.9593 15.88C81.5539 17.3093 81.3513 18.568 81.3513 19.656C81.3513 20.68 81.4686 21.3733 81.7033 21.736C81.9379 22.0773 82.3646 22.248 82.9833 22.248ZM93.5258 7.816H98.1338L97.6218 10.216C98.6884 9.29867 99.9364 8.84 101.366 8.84C102.56 8.84 103.51 9.23467 104.214 10.024C104.918 10.8133 105.27 12.104 105.27 13.896C105.27 15.5813 105.024 17.288 104.534 19.016C104.043 20.7227 103.211 22.184 102.038 23.4C100.864 24.5947 99.3178 25.192 97.3978 25.192C96.0324 25.192 95.1258 24.808 94.6778 24.04L93.0138 31.848L88.1817 33L93.5258 7.816ZM96.4058 22.408C97.4298 22.408 98.2724 21.928 98.9338 20.968C99.6164 20.008 100.107 18.8667 100.406 17.544C100.726 16.2 100.886 14.952 100.886 13.8C100.886 12.0293 100.352 11.144 99.2858 11.144C98.9018 11.144 98.5071 11.2827 98.1018 11.56C97.7178 11.8373 97.3764 12.2213 97.0778 12.712L95.1898 21.672C95.3604 22.1627 95.7658 22.408 96.4058 22.408Z" fill="black"/>
</svg>
