<svg viewBox="0 0 28 28" fill="none" xmlns="http://www.w3.org/2000/svg">
<path d="M20.7623 23.5048C19.1009 21.6492 16.6868 20.4815 14 20.4815C11.3133 20.4815 8.89901 21.6492 7.23753 23.5048M14 25.6666C7.55672 25.6666 2.33337 20.4433 2.33337 14C2.33337 7.55666 7.55672 2.33331 14 2.33331C20.4434 2.33331 25.6667 7.55666 25.6667 14C25.6667 20.4433 20.4434 25.6666 14 25.6666ZM14 16.5926C11.8523 16.5926 10.1112 14.8515 10.1112 12.7037C10.1112 10.5559 11.8523 8.81479 14 8.81479C16.1478 8.81479 17.8889 10.5559 17.8889 12.7037C17.8889 14.8515 16.1478 16.5926 14 16.5926Z" stroke="black" stroke-width="2.5" stroke-linecap="round" stroke-linejoin="round"/>
</svg>
